<?xml version="1.0" encoding="iso-8859-1"?>
<!-- Generator: Adobe Illustrator 19.0.0, SVG Export Plug-In . SVG Version: 6.00 Build 0)  -->
<svg version="1.1" id="Capa_1" xmlns="http://www.w3.org/2000/svg" xmlns:xlink="http://www.w3.org/1999/xlink" x="0px" y="0px"
	 viewBox="0 0 512.19 512.19" style="enable-background:new 0 0 512.19 512.19;" xml:space="preserve">
<path style="fill:#2196F3;" d="M295.445,35.381c-4.218-4.112-10.972-4.026-15.084,0.192c-1.921,1.971-3.006,4.608-3.028,7.36
	v117.333H10.667C4.776,160.266,0,165.042,0,170.933V341.6c0,5.891,4.776,10.667,10.667,10.667h266.667v116.885
	c-0.011,5.891,4.757,10.675,10.648,10.686c2.84,0.005,5.565-1.123,7.571-3.134L509.056,263.37c4.171-4.16,4.179-10.914,0.019-15.085
	c-0.006-0.006-0.013-0.013-0.019-0.019L295.445,35.381z"/>
<g>
</g>
<g>
</g>
<g>
</g>
<g>
</g>
<g>
</g>
<g>
</g>
<g>
</g>
<g>
</g>
<g>
</g>
<g>
</g>
<g>
</g>
<g>
</g>
<g>
</g>
<g>
</g>
<g>
</g>
</svg>
